<svg xmlns="http://www.w3.org/2000/svg" viewBox="0 0 980 548" role="img" aria-labelledby="title desc" font-family="ui-sans-serif, system-ui, -apple-system, 'Segoe UI', Roboto, Helvetica, Arial, sans-serif">
  <title id="title">Variant evaluation — one frozen genomic language model, two readouts</title>
  <desc id="desc">A reference and alternate allele window are passed through the same frozen genomic language model in forward and reverse-complement orientations. The shared inference produces a zero-shot log-likelihood ratio and mean-pooled allele embeddings. The embeddings feed an L2 logistic linear probe evaluated with nested leave-one-chromosome-out cross-validation. Both readouts are compared with AUPRC.</desc>

  <defs>
    <marker id="arrow" viewBox="0 0 10 10" refX="9" refY="5" markerWidth="7" markerHeight="7" orient="auto-start-reverse">
      <path d="M 0 0 L 10 5 L 0 10 z" fill="#8a7d68"/>
    </marker>
    <marker id="arrow-rust" viewBox="0 0 10 10" refX="9" refY="5" markerWidth="7" markerHeight="7" orient="auto-start-reverse">
      <path d="M 0 0 L 10 5 L 0 10 z" fill="#9c4f2f"/>
    </marker>
    <marker id="arrow-teal" viewBox="0 0 10 10" refX="9" refY="5" markerWidth="7" markerHeight="7" orient="auto-start-reverse">
      <path d="M 0 0 L 10 5 L 0 10 z" fill="#2f6f63"/>
    </marker>
    <filter id="shadow" x="-10%" y="-10%" width="120%" height="130%">
      <feDropShadow dx="0" dy="2" stdDeviation="2" flood-color="#5b4a36" flood-opacity="0.10"/>
    </filter>
  </defs>

  <!-- Warm blog panel -->
  <rect x="1" y="1" width="978" height="546" rx="16" fill="#f6f0e4" stroke="#ddd3bf"/>
  <text x="28" y="35" font-size="20" font-weight="750" fill="#1f1e1b">Variant evaluation — one frozen gLM, two readouts</text>
  <text x="28" y="57" font-size="11.5" fill="#7a6f5f">Paired ref/alt inference is shared · model weights never update · forward + reverse-complement scores are averaged</text>

  <!-- Input pair -->
  <text x="28" y="93" font-size="9.5" font-weight="700" letter-spacing="0.8" fill="#a89a80">PAIRED ALLELE WINDOWS</text>
  <g filter="url(#shadow)">
    <rect x="28" y="106" width="207" height="139" rx="12" fill="#fcfaf5" stroke="#ddd3bf"/>
  </g>
  <text x="44" y="127" font-size="10" fill="#8a7d68">same genomic context · one SNV</text>

  <text x="44" y="151" font-size="10" font-weight="700" fill="#465c6e">REF</text>
  <g font-family="ui-monospace, SFMono-Regular, Menlo, Consolas, monospace" font-size="14" fill="#1f1e1b">
    <text x="80" y="152">A C G T</text>
    <rect x="130" y="136" width="21" height="22" rx="4" fill="#e9edf0" stroke="#465c6e"/>
    <text x="136" y="152" font-weight="700" fill="#465c6e">C</text>
    <text x="158" y="152">G T C A</text>
  </g>

  <line x1="140.5" y1="162" x2="140.5" y2="177" stroke="#c0883a" stroke-width="1.5" stroke-dasharray="3 3"/>
  <text x="44" y="198" font-size="10" font-weight="700" fill="#c0883a">ALT</text>
  <g font-family="ui-monospace, SFMono-Regular, Menlo, Consolas, monospace" font-size="14" fill="#1f1e1b">
    <text x="80" y="199">A C G T</text>
    <rect x="130" y="183" width="21" height="22" rx="4" fill="#f5e6cf" stroke="#c0883a"/>
    <text x="136" y="199" font-weight="700" fill="#9c4f2f">T</text>
    <text x="158" y="199">G T C A</text>
  </g>
  <text x="44" y="226" font-size="9.5" fill="#8a7d68">The highlighted base is the only change</text>

  <!-- Frozen model -->
  <path d="M 235 175 C 250 175, 251 175, 264 175" fill="none" stroke="#8a7d68" stroke-width="1.8" marker-end="url(#arrow)"/>
  <text x="266" y="93" font-size="9.5" font-weight="700" letter-spacing="0.8" fill="#a89a80">SHARED INFERENCE</text>
  <g filter="url(#shadow)">
    <rect x="266" y="106" width="142" height="139" rx="14" fill="#fcfaf5" stroke="#9c4f2f" stroke-width="1.4"/>
  </g>
  <circle cx="337" cy="145" r="22" fill="#f0ded2"/>
  <path d="M 326 132 C 342 140, 331 151, 348 159 M 348 132 C 332 140, 343 151, 326 159 M 329 137 L 345 137 M 329 154 L 345 154" fill="none" stroke="#9c4f2f" stroke-width="1.7" stroke-linecap="round"/>
  <text x="337" y="186" font-size="16" font-weight="750" text-anchor="middle" fill="#1f1e1b">frozen gLM</text>
  <text x="337" y="204" font-size="10" text-anchor="middle" fill="#7a6f5f">same weights · ref + alt</text>
  <g>
    <rect x="286" y="216" width="45" height="17" rx="8.5" fill="#e8efec"/>
    <text x="308.5" y="228" font-size="8.5" font-weight="700" text-anchor="middle" fill="#2f6f63">FWD</text>
    <rect x="340" y="216" width="48" height="17" rx="8.5" fill="#e8efec"/>
    <text x="364" y="228" font-size="8.5" font-weight="700" text-anchor="middle" fill="#2f6f63">RC</text>
  </g>

  <!-- Shared output split -->
  <path d="M 408 175 L 432 175 L 432 150 L 454 150" fill="none" stroke="#8a7d68" stroke-width="1.8" marker-end="url(#arrow)"/>
  <path d="M 432 175 L 432 315 L 454 315" fill="none" stroke="#8a7d68" stroke-width="1.8" marker-end="url(#arrow)"/>
  <circle cx="432" cy="175" r="4" fill="#8a7d68"/>
  <text x="419" y="254" font-size="8.5" fill="#a89a80" text-anchor="middle" transform="rotate(-90 419 254)">same model passes</text>

  <!-- Zero-shot branch -->
  <g filter="url(#shadow)">
    <rect x="455" y="86" width="346" height="159" rx="13" fill="#fcfaf5" stroke="#dbc4b5"/>
  </g>
  <rect x="455" y="86" width="7" height="159" rx="3.5" fill="#9c4f2f"/>
  <text x="478" y="111" font-size="9.5" font-weight="700" letter-spacing="0.7" fill="#9c4f2f">A · ZERO-SHOT READOUT</text>
  <text x="478" y="133" font-size="14" font-weight="750" fill="#1f1e1b">Sequence log-likelihood ratio</text>
  <rect x="478" y="146" width="295" height="41" rx="8" fill="#f4e9e1"/>
  <text x="625.5" y="164" font-size="11.5" font-weight="700" text-anchor="middle" fill="#5b3424">Score = log P(REF) − log P(ALT)</text>
  <text x="625.5" y="179" font-size="9.5" text-anchor="middle" fill="#8a624f">− mean raw LLR across FWD + RC</text>
  <text x="478" y="207" font-size="9.5" fill="#7a6f5f">No labels · variant and downstream token predictions both contribute</text>
  <g>
    <rect x="478" y="217" width="87" height="17" rx="8.5" fill="#f0ded2"/>
    <text x="521.5" y="229" font-size="8.5" font-weight="700" text-anchor="middle" fill="#9c4f2f">zero-shot score</text>
  </g>

  <!-- Supervised branch -->
  <g filter="url(#shadow)">
    <rect x="455" y="270" width="390" height="237" rx="13" fill="#fcfaf5" stroke="#b9d2ca"/>
  </g>
  <rect x="455" y="270" width="7" height="237" rx="3.5" fill="#2f6f63"/>
  <text x="478" y="295" font-size="9.5" font-weight="700" letter-spacing="0.7" fill="#2f6f63">B · SUPERVISED READOUT</text>

  <!-- Probe feature pipeline -->
  <rect x="478" y="308" width="101" height="55" rx="9" fill="#e9edf0" stroke="#bdc7cf"/>
  <g fill="#465c6e">
    <rect x="489" y="322" width="8" height="11" rx="1" opacity="0.45"/>
    <rect x="499" y="318" width="8" height="15" rx="1" opacity="0.70"/>
    <rect x="509" y="324" width="8" height="9" rx="1"/>
    <rect x="489" y="339" width="8" height="11" rx="1" opacity="0.45"/>
    <rect x="499" y="335" width="8" height="15" rx="1" opacity="0.70"/>
    <rect x="509" y="341" width="8" height="9" rx="1"/>
  </g>
  <text x="525" y="327" font-size="8.5" font-weight="700" fill="#465c6e">e<tspan baseline-shift="sub" font-size="6.5">ref</tspan></text>
  <text x="525" y="345" font-size="8.5" font-weight="700" fill="#465c6e">e<tspan baseline-shift="sub" font-size="6.5">alt</tspan></text>
  <text x="528.5" y="357" font-size="8" text-anchor="middle" fill="#7a6f5f">mean-pooled window</text>

  <path d="M 579 335 L 592 335" fill="none" stroke="#2f6f63" stroke-width="1.5" marker-end="url(#arrow-teal)"/>
  <rect x="595" y="308" width="103" height="55" rx="9" fill="#e8efec" stroke="#9fc3b8"/>
  <text x="646.5" y="328" font-size="9" font-weight="700" text-anchor="middle" fill="#2f6f63">pair feature</text>
  <text x="646.5" y="345" font-size="10" font-family="ui-monospace, SFMono-Regular, Menlo, Consolas, monospace" text-anchor="middle" fill="#1f1e1b">[ref ; alt−ref]</text>
  <text x="646.5" y="357" font-size="8" text-anchor="middle" fill="#7a6f5f">directional task</text>

  <path d="M 698 335 L 711 335" fill="none" stroke="#2f6f63" stroke-width="1.5" marker-end="url(#arrow-teal)"/>
  <rect x="714" y="308" width="108" height="55" rx="9" fill="#e8efec" stroke="#2f6f63"/>
  <text x="768" y="329" font-size="10" font-weight="750" text-anchor="middle" fill="#1f1e1b">linear probe</text>
  <text x="768" y="345" font-size="8.5" text-anchor="middle" fill="#2f6f63">standardize → L2 logit</text>
  <text x="768" y="357" font-size="8" text-anchor="middle" fill="#7a6f5f">frozen embeddings</text>

  <!-- LOCO block -->
  <rect x="478" y="381" width="344" height="105" rx="10" fill="#f8f3e9" stroke="#d8c39f" stroke-dasharray="4 3"/>
  <text x="494" y="402" font-size="10.5" font-weight="750" fill="#5b4a36">LOCO · leave one chromosome out</text>
  <text x="806" y="402" font-size="8.5" text-anchor="end" fill="#8a7d68">nested, leakage-free</text>
  <g font-size="8" font-weight="700" text-anchor="middle">
    <rect x="494" y="414" width="34" height="22" rx="4" fill="#e8efec"/><text x="511" y="429" fill="#2f6f63">chr 1</text>
    <rect x="534" y="414" width="34" height="22" rx="4" fill="#e8efec"/><text x="551" y="429" fill="#2f6f63">chr 2</text>
    <text x="579" y="429" fill="#a89a80">···</text>
    <rect x="592" y="411" width="46" height="28" rx="5" fill="#f5e6cf" stroke="#c0883a" stroke-width="1.4"/><text x="615" y="428" fill="#9c4f2f">chr k</text>
    <text x="650" y="429" fill="#a89a80">···</text>
    <rect x="663" y="414" width="39" height="22" rx="4" fill="#e8efec"/><text x="682.5" y="429" fill="#2f6f63">chr 22</text>
    <path d="M 710 425 L 727 425" fill="none" stroke="#c0883a" stroke-width="1.4" marker-end="url(#arrow-rust)"/>
    <text x="772" y="421" font-size="8.5" fill="#9c4f2f">predict held-out</text>
    <text x="772" y="433" font-size="8.5" fill="#9c4f2f">chromosome</text>
  </g>
  <text x="494" y="455" font-size="9" fill="#7a6f5f"><tspan font-weight="700" fill="#2f6f63">TRAIN</tspan> on all other chromosomes · inner GroupKFold tunes C</text>
  <text x="494" y="472" font-size="9" fill="#7a6f5f"><tspan font-weight="700" fill="#c0883a">TEST</tspan> on chr k · repeat k → one out-of-fold score per variant</text>

  <!-- Shared metric -->
  <path d="M 801 166 C 836 166, 838 199, 865 199" fill="none" stroke="#9c4f2f" stroke-width="1.8" marker-end="url(#arrow-rust)"/>
  <path d="M 845 437 C 857 437, 854 369, 865 369" fill="none" stroke="#2f6f63" stroke-width="1.8" marker-end="url(#arrow-teal)"/>
  <g filter="url(#shadow)">
    <rect x="866" y="174" width="88" height="221" rx="13" fill="#eef0e4" stroke="#6f7d3f" stroke-width="1.3"/>
  </g>
  <text x="910" y="201" font-size="8.5" font-weight="700" letter-spacing="0.6" text-anchor="middle" fill="#6f7d3f">COMPARE</text>
  <circle cx="910" cy="255" r="33" fill="#6f7d3f"/>
  <text x="910" y="251" font-size="15" font-weight="800" text-anchor="middle" fill="#fff">AUPRC</text>
  <text x="910" y="267" font-size="8.5" text-anchor="middle" fill="#fff">↑ better</text>
  <text x="910" y="311" font-size="10" font-weight="700" text-anchor="middle" fill="#1f1e1b">rank variants</text>
  <text x="910" y="329" font-size="9" text-anchor="middle" fill="#7a6f5f">same rows</text>
  <text x="910" y="344" font-size="9" text-anchor="middle" fill="#7a6f5f">same metric</text>
  <line x1="883" y1="354" x2="937" y2="354" stroke="#cbd0b0"/>
  <circle cx="892" cy="368" r="4" fill="#9c4f2f"/><text x="901" y="371" font-size="8.5" fill="#5b4a36">zero-shot</text>
  <circle cx="892" cy="382" r="4" fill="#2f6f63"/><text x="901" y="385" font-size="8.5" fill="#5b4a36">probe OOF</text>

  <!-- Footer key -->
  <g font-size="9" fill="#7a6f5f">
    <rect x="28" y="520" width="10" height="10" rx="2" fill="#9c4f2f"/><text x="44" y="529">likelihood readout</text>
    <rect x="157" y="520" width="10" height="10" rx="2" fill="#2f6f63"/><text x="173" y="529">supervised readout</text>
    <rect x="301" y="520" width="10" height="10" rx="2" fill="#c0883a"/><text x="317" y="529">held-out chromosome</text>
    <rect x="458" y="520" width="10" height="10" rx="2" fill="#465c6e"/><text x="474" y="529">allele embeddings</text>
    <rect x="589" y="520" width="10" height="10" rx="2" fill="#6f7d3f"/><text x="605" y="529">shared evaluation metric</text>
  </g>
</svg>
