<?xml version="1.0" encoding="utf-8" standalone="no"?>
<!DOCTYPE svg PUBLIC "-//W3C//DTD SVG 1.1//EN"
  "http://www.w3.org/Graphics/SVG/1.1/DTD/svg11.dtd">
<svg xmlns:xlink="http://www.w3.org/1999/xlink" width="448.22554pt" height="298.88256pt" viewBox="0 0 448.22554 298.88256" xmlns="http://www.w3.org/2000/svg" version="1.1" data-figure-typography="lato-v1" data-figure-render-width="640" font-family="Lato, sans-serif">
 <metadata>
  <rdf:RDF xmlns:dc="http://purl.org/dc/elements/1.1/" xmlns:cc="http://creativecommons.org/ns#" xmlns:rdf="http://www.w3.org/1999/02/22-rdf-syntax-ns#">
   <cc:Work>
    <dc:type rdf:resource="http://purl.org/dc/dcmitype/StillImage"/>
    <dc:format>image/svg+xml</dc:format>
    <dc:creator>
     <cc:Agent>
      <dc:title>Matplotlib v3.11.0rc1, https://matplotlib.org/</dc:title>
     </cc:Agent>
    </dc:creator>
   </cc:Work>
  </rdf:RDF>
 </metadata>
 <defs>
  <style type="text/css">*{stroke-linejoin: round; stroke-linecap: butt}</style>
 </defs>
 <g id="figure_1">
  <g id="patch_1">
   <path d="M 0 298.88256
L 448.22554 298.88256
L 448.22554 0
L 0 0
L 0 298.88256
z
" style="fill: none"/>
  </g>
  <g id="axes_1">
   <g id="patch_2">
    <path d="M 49.28375 138.42275
L 127.82554 138.42275
L 127.82554 59.88096
L 49.28375 59.88096
L 49.28375 138.42275
z
" style="fill: none"/>
   </g>
   <g id="matplotlib.axis_1">
    <g id="xtick_1">
     <g id="line2d_1">
      <defs>
       <path id="md51d06e51e" d="M 0 0
L 0 3.5
" style="stroke: #1f1e1b; stroke-width: 0.8"/>
      </defs>
      <g>
       <use xlink:href="#md51d06e51e" x="52.489537" y="138.42275" style="fill: #1f1e1b; stroke: #1f1e1b; stroke-width: 0.8"/>
      </g>
     </g>
     <g id="text_1">
      <text style="font-size: 8.404px; font-family: 'Lato', sans-serif; fill: #1f1e1b" transform="translate(14.684807 174.312841) rotate(-30)">0.7000</text>
     </g>
    </g>
    <g id="xtick_2">
     <g id="line2d_2">
      <g>
       <use xlink:href="#md51d06e51e" x="84.547411" y="138.42275" style="fill: #1f1e1b; stroke: #1f1e1b; stroke-width: 0.8"/>
      </g>
     </g>
     <g id="text_2">
      <text style="font-size: 8.404px; font-family: 'Lato', sans-serif; fill: #1f1e1b" transform="translate(46.74268 174.312841) rotate(-30)">0.9598</text>
     </g>
    </g>
    <g id="xtick_3">
     <g id="line2d_3">
      <g>
       <use xlink:href="#md51d06e51e" x="116.605284" y="138.42275" style="fill: #1f1e1b; stroke: #1f1e1b; stroke-width: 0.8"/>
      </g>
     </g>
     <g id="text_3">
      <text style="font-size: 8.404px; font-family: 'Lato', sans-serif; fill: #1f1e1b" transform="translate(78.800554 174.312841) rotate(-30)">0.9919</text>
     </g>
    </g>
    <g id="text_4">
     <text style="font-size: 8.404px; font-family: 'Lato', sans-serif; text-anchor: middle; fill: #1f1e1b" x="88.554645" y="190.002555" transform="rotate(-0 88.554645 190.002555)">β₂</text>
    </g>
   </g>
   <g id="matplotlib.axis_2">
    <g id="ytick_1">
     <g id="line2d_4">
      <defs>
       <path id="m15c5564929" d="M 0 0
L -3.5 0
" style="stroke: #1f1e1b; stroke-width: 0.8"/>
      </defs>
      <g>
       <use xlink:href="#m15c5564929" x="49.28375" y="119.412093" style="fill: #1f1e1b; stroke: #1f1e1b; stroke-width: 0.8"/>
      </g>
     </g>
     <g id="text_5">
      <text style="font-size: 8.404px; font-family: 'Lato', sans-serif; text-anchor: end; fill: #1f1e1b" x="42.28375" y="123.970687" transform="rotate(-0 42.28375 123.970687)">1.0</text>
     </g>
    </g>
    <g id="ytick_2">
     <g id="line2d_5">
      <g>
       <use xlink:href="#m15c5564929" x="49.28375" y="82.758935" style="fill: #1f1e1b; stroke: #1f1e1b; stroke-width: 0.8"/>
      </g>
     </g>
     <g id="text_6">
      <text style="font-size: 8.404px; font-family: 'Lato', sans-serif; text-anchor: end; fill: #1f1e1b" x="42.28375" y="87.317528" transform="rotate(-0 42.28375 87.317528)">1.1</text>
     </g>
    </g>
    <g id="text_7">
     <text style="font-size: 8.404px; font-family: 'Lato', sans-serif; text-anchor: middle; fill: #1f1e1b" x="16.317187" y="99.151855" transform="rotate(-90 16.317187 99.151855)">Loss</text>
    </g>
   </g>
   <g id="line2d_6">
    <path d="M 52.489537 86.666696
L 60.504006 88.454785
L 68.518474 87.963184
L 76.532942 88.977277
L 84.547411 89.138945
L 92.561879 86.530939
L 100.576347 86.753385
L 108.590816 86.961805
L 116.605284 85.749516
L 124.619752 63.451041
" clip-path="url(#p3299223fdd)" style="fill: none; stroke: #345a51; stroke-opacity: 0.6; stroke-linecap: square"/>
   </g>
   <g id="line2d_7">
    <path d="M 52.489537 109.221742
L 60.504006 108.265281
L 68.518474 107.037131
L 76.532942 107.983455
L 84.547411 109.212916
L 92.561879 105.662562
L 100.576347 108.18353
L 108.590816 107.784167
L 116.605284 103.873425
L 124.619752 73.201569
" clip-path="url(#p3299223fdd)" style="fill: none; stroke: #7e8a45; stroke-opacity: 0.6; stroke-linecap: square"/>
   </g>
   <g id="line2d_8">
    <path d="M 52.489537 132.011992
L 60.504006 134.852668
L 68.518474 131.344327
L 76.532942 131.180496
L 84.547411 127.027341
L 92.561879 124.956596
L 100.576347 126.980282
L 108.590816 118.371216
L 116.605284 118.822531
L 124.619752 78.312147
" clip-path="url(#p3299223fdd)" style="fill: none; stroke: #aa6d39; stroke-opacity: 0.6; stroke-linecap: square"/>
   </g>
   <g id="patch_3">
    <path d="M 49.28375 138.42275
L 49.28375 59.88096
" style="fill: none; stroke: #1f1e1b; stroke-width: 0.8; stroke-linejoin: miter; stroke-linecap: square"/>
   </g>
   <g id="patch_4">
    <path d="M 49.28375 138.42275
L 127.82554 138.42275
" style="fill: none; stroke: #1f1e1b; stroke-width: 0.8; stroke-linejoin: miter; stroke-linecap: square"/>
   </g>
   <g id="PathCollection_1">
    <defs>
     <path id="m190eb2f143" d="M 0 3.872983
C 1.027127 3.872983 2.012324 3.464901 2.738613 2.738613
C 3.464901 2.012324 3.872983 1.027127 3.872983 0
C 3.872983 -1.027127 3.464901 -2.012324 2.738613 -2.738613
C 2.012324 -3.464901 1.027127 -3.872983 0 -3.872983
C -1.027127 -3.872983 -2.012324 -3.464901 -2.738613 -2.738613
C -3.464901 -2.012324 -3.872983 -1.027127 -3.872983 0
C -3.872983 1.027127 -3.464901 2.012324 -2.738613 2.738613
C -2.012324 3.464901 -1.027127 3.872983 0 3.872983
z
" style="stroke: #000000; stroke-width: 0.4"/>
    </defs>
    <g clip-path="url(#p3299223fdd)">
     <use xlink:href="#m190eb2f143" x="76.532942" y="88.977277" style="fill: #345a51; stroke: #000000; stroke-width: 0.4"/>
     <use xlink:href="#m190eb2f143" x="84.547411" y="89.138945" style="fill: #345a51; stroke: #000000; stroke-width: 0.4"/>
     <use xlink:href="#m190eb2f143" x="92.561879" y="86.530939" style="fill: #345a51; stroke: #000000; stroke-width: 0.4"/>
     <use xlink:href="#m190eb2f143" x="108.590816" y="86.961805" style="fill: #345a51; stroke: #000000; stroke-width: 0.4"/>
     <use xlink:href="#m190eb2f143" x="116.605284" y="85.749516" style="fill: #345a51; stroke: #000000; stroke-width: 0.4"/>
     <use xlink:href="#m190eb2f143" x="124.619752" y="63.451041" style="fill: #345a51; stroke: #000000; stroke-width: 0.4"/>
     <use xlink:href="#m190eb2f143" x="52.489537" y="86.666696" style="fill: #345a51; stroke: #000000; stroke-width: 0.4"/>
     <use xlink:href="#m190eb2f143" x="60.504006" y="88.454785" style="fill: #345a51; stroke: #000000; stroke-width: 0.4"/>
     <use xlink:href="#m190eb2f143" x="68.518474" y="87.963184" style="fill: #345a51; stroke: #000000; stroke-width: 0.4"/>
    </g>
   </g>
   <g id="PathCollection_2">
    <defs>
     <path id="m3dd2a6cb7a" d="M 0 3.872983
C 1.027127 3.872983 2.012324 3.464901 2.738613 2.738613
C 3.464901 2.012324 3.872983 1.027127 3.872983 0
C 3.872983 -1.027127 3.464901 -2.012324 2.738613 -2.738613
C 2.012324 -3.464901 1.027127 -3.872983 0 -3.872983
C -1.027127 -3.872983 -2.012324 -3.464901 -2.738613 -2.738613
C -3.464901 -2.012324 -3.872983 -1.027127 -3.872983 0
C -3.872983 1.027127 -3.464901 2.012324 -2.738613 2.738613
C -2.012324 3.464901 -1.027127 3.872983 0 3.872983
z
" style="stroke: #000000; stroke-width: 0.4"/>
    </defs>
    <g clip-path="url(#p3299223fdd)">
     <use xlink:href="#m3dd2a6cb7a" x="76.532942" y="107.983455" style="fill: #7e8a45; stroke: #000000; stroke-width: 0.4"/>
     <use xlink:href="#m3dd2a6cb7a" x="84.547411" y="109.212916" style="fill: #7e8a45; stroke: #000000; stroke-width: 0.4"/>
     <use xlink:href="#m3dd2a6cb7a" x="92.561879" y="105.662562" style="fill: #7e8a45; stroke: #000000; stroke-width: 0.4"/>
     <use xlink:href="#m3dd2a6cb7a" x="108.590816" y="107.784167" style="fill: #7e8a45; stroke: #000000; stroke-width: 0.4"/>
     <use xlink:href="#m3dd2a6cb7a" x="116.605284" y="103.873425" style="fill: #7e8a45; stroke: #000000; stroke-width: 0.4"/>
     <use xlink:href="#m3dd2a6cb7a" x="124.619752" y="73.201569" style="fill: #7e8a45; stroke: #000000; stroke-width: 0.4"/>
     <use xlink:href="#m3dd2a6cb7a" x="52.489537" y="109.221742" style="fill: #7e8a45; stroke: #000000; stroke-width: 0.4"/>
     <use xlink:href="#m3dd2a6cb7a" x="60.504006" y="108.265281" style="fill: #7e8a45; stroke: #000000; stroke-width: 0.4"/>
     <use xlink:href="#m3dd2a6cb7a" x="68.518474" y="107.037131" style="fill: #7e8a45; stroke: #000000; stroke-width: 0.4"/>
    </g>
   </g>
   <g id="PathCollection_3">
    <defs>
     <path id="m1eddd87c9e" d="M 0 3.872983
C 1.027127 3.872983 2.012324 3.464901 2.738613 2.738613
C 3.464901 2.012324 3.872983 1.027127 3.872983 0
C 3.872983 -1.027127 3.464901 -2.012324 2.738613 -2.738613
C 2.012324 -3.464901 1.027127 -3.872983 0 -3.872983
C -1.027127 -3.872983 -2.012324 -3.464901 -2.738613 -2.738613
C -3.464901 -2.012324 -3.872983 -1.027127 -3.872983 0
C -3.872983 1.027127 -3.464901 2.012324 -2.738613 2.738613
C -2.012324 3.464901 -1.027127 3.872983 0 3.872983
z
" style="stroke: #000000; stroke-width: 0.4"/>
    </defs>
    <g clip-path="url(#p3299223fdd)">
     <use xlink:href="#m1eddd87c9e" x="76.532942" y="131.180496" style="fill: #aa6d39; stroke: #000000; stroke-width: 0.4"/>
     <use xlink:href="#m1eddd87c9e" x="84.547411" y="127.027341" style="fill: #aa6d39; stroke: #000000; stroke-width: 0.4"/>
     <use xlink:href="#m1eddd87c9e" x="92.561879" y="124.956596" style="fill: #aa6d39; stroke: #000000; stroke-width: 0.4"/>
     <use xlink:href="#m1eddd87c9e" x="108.590816" y="118.371216" style="fill: #aa6d39; stroke: #000000; stroke-width: 0.4"/>
     <use xlink:href="#m1eddd87c9e" x="116.605284" y="118.822531" style="fill: #aa6d39; stroke: #000000; stroke-width: 0.4"/>
     <use xlink:href="#m1eddd87c9e" x="124.619752" y="78.312147" style="fill: #aa6d39; stroke: #000000; stroke-width: 0.4"/>
     <use xlink:href="#m1eddd87c9e" x="52.489537" y="132.011992" style="fill: #aa6d39; stroke: #000000; stroke-width: 0.4"/>
     <use xlink:href="#m1eddd87c9e" x="60.504006" y="134.852668" style="fill: #aa6d39; stroke: #000000; stroke-width: 0.4"/>
     <use xlink:href="#m1eddd87c9e" x="68.518474" y="131.344327" style="fill: #aa6d39; stroke: #000000; stroke-width: 0.4"/>
    </g>
   </g>
   <g id="PathCollection_4">
    <defs>
     <path id="m02ea6a67bc" d="M -3.872983 3.872983
L 3.872983 3.872983
L 3.872983 -3.872983
L -3.872983 -3.872983
z
" style="stroke: #000000; stroke-width: 0.6"/>
    </defs>
    <g clip-path="url(#p3299223fdd)">
     <use xlink:href="#m02ea6a67bc" x="100.576347" y="86.753385" style="fill: #345a51; stroke: #000000; stroke-width: 0.6"/>
    </g>
   </g>
   <g id="PathCollection_5">
    <defs>
     <path id="m85703ddaad" d="M -3.872983 3.872983
L 3.872983 3.872983
L 3.872983 -3.872983
L -3.872983 -3.872983
z
" style="stroke: #000000; stroke-width: 0.6"/>
    </defs>
    <g clip-path="url(#p3299223fdd)">
     <use xlink:href="#m85703ddaad" x="100.576347" y="108.18353" style="fill: #7e8a45; stroke: #000000; stroke-width: 0.6"/>
    </g>
   </g>
   <g id="PathCollection_6">
    <defs>
     <path id="ma70c3705e5" d="M -3.872983 3.872983
L 3.872983 3.872983
L 3.872983 -3.872983
L -3.872983 -3.872983
z
" style="stroke: #000000; stroke-width: 0.6"/>
    </defs>
    <g clip-path="url(#p3299223fdd)">
     <use xlink:href="#ma70c3705e5" x="100.576347" y="126.980282" style="fill: #aa6d39; stroke: #000000; stroke-width: 0.6"/>
    </g>
   </g>
  </g>
  <g id="axes_2">
   <g id="patch_5">
    <path d="M 362.48375 138.42275
L 441.02554 138.42275
L 441.02554 59.88096
L 362.48375 59.88096
L 362.48375 138.42275
z
" style="fill: none"/>
   </g>
   <g id="matplotlib.axis_3">
    <g id="xtick_4">
     <g id="line2d_9">
      <g>
       <use xlink:href="#md51d06e51e" x="365.689537" y="138.42275" style="fill: #1f1e1b; stroke: #1f1e1b; stroke-width: 0.8"/>
      </g>
     </g>
     <g id="text_8">
      <text style="font-size: 8.404px; font-family: 'Lato', sans-serif; fill: #1f1e1b" transform="translate(305.364358 187.315028) rotate(-30)">8.0 × 10⁻²¹</text>
     </g>
    </g>
    <g id="xtick_5">
     <g id="line2d_10">
      <g>
       <use xlink:href="#md51d06e51e" x="397.747411" y="138.42275" style="fill: #1f1e1b; stroke: #1f1e1b; stroke-width: 0.8"/>
      </g>
     </g>
     <g id="text_9">
      <text style="font-size: 8.404px; font-family: 'Lato', sans-serif; fill: #1f1e1b" transform="translate(337.422231 187.315028) rotate(-30)">3.2 × 10⁻¹³</text>
     </g>
    </g>
    <g id="xtick_6">
     <g id="line2d_11">
      <g>
       <use xlink:href="#md51d06e51e" x="429.805284" y="138.42275" style="fill: #1f1e1b; stroke: #1f1e1b; stroke-width: 0.8"/>
      </g>
     </g>
     <g id="text_10">
      <text style="font-size: 8.404px; font-family: 'Lato', sans-serif; fill: #1f1e1b" transform="translate(373.646769 184.909403) rotate(-30)">1.3 × 10⁻⁵</text>
     </g>
    </g>
    <g id="text_11">
     <text style="font-size: 8.404px; font-family: 'Lato', sans-serif; text-anchor: middle; fill: #1f1e1b" x="401.754645" y="194.928805" transform="rotate(-0 401.754645 194.928805)">ε</text>
    </g>
   </g>
   <g id="matplotlib.axis_4">
    <g id="ytick_3">
     <g id="line2d_12">
      <g>
       <use xlink:href="#m15c5564929" x="362.48375" y="127.493527" style="fill: #1f1e1b; stroke: #1f1e1b; stroke-width: 0.8"/>
      </g>
     </g>
     <g id="text_12">
      <text style="font-size: 8.404px; font-family: 'Lato', sans-serif; text-anchor: end; fill: #1f1e1b" x="355.48375" y="132.052121" transform="rotate(-0 355.48375 132.052121)">1.0</text>
     </g>
    </g>
    <g id="ytick_4">
     <g id="line2d_13">
      <g>
       <use xlink:href="#m15c5564929" x="362.48375" y="91.852799" style="fill: #1f1e1b; stroke: #1f1e1b; stroke-width: 0.8"/>
      </g>
     </g>
     <g id="text_13">
      <text style="font-size: 8.404px; font-family: 'Lato', sans-serif; text-anchor: end; fill: #1f1e1b" x="355.48375" y="96.411393" transform="rotate(-0 355.48375 96.411393)">1.1</text>
     </g>
    </g>
    <g id="text_14">
     <text style="font-size: 8.404px; font-family: 'Lato', sans-serif; text-anchor: middle; fill: #1f1e1b" x="329.517187" y="99.151855" transform="rotate(-90 329.517187 99.151855)">Loss</text>
    </g>
   </g>
   <g id="line2d_14">
    <path d="M 365.689537 96.368188
L 373.704006 96.538391
L 381.718474 96.404217
L 389.732942 95.736915
L 397.747411 95.350198
L 405.761879 95.773624
L 413.776347 94.747689
L 421.790816 92.503437
L 429.805284 69.690988
L 437.819752 64.539262
" clip-path="url(#p3932736abc)" style="fill: none; stroke: #345a51; stroke-opacity: 0.6; stroke-linecap: square"/>
   </g>
   <g id="line2d_15">
    <path d="M 365.689537 117.79968
L 373.704006 118.040412
L 381.718474 117.83112
L 389.732942 116.575118
L 397.747411 117.091123
L 405.761879 112.305848
L 413.776347 113.275148
L 421.790816 105.268079
L 429.805284 76.198179
L 437.819752 63.451041
" clip-path="url(#p3932736abc)" style="fill: none; stroke: #7e8a45; stroke-opacity: 0.6; stroke-linecap: square"/>
   </g>
   <g id="line2d_16">
    <path d="M 365.689537 129.333982
L 373.704006 129.851984
L 381.718474 129.679253
L 389.732942 134.852668
L 397.747411 131.860623
L 405.761879 131.789224
L 413.776347 128.376897
L 421.790816 117.867659
L 429.805284 75.8087
L 437.819752 66.505479
" clip-path="url(#p3932736abc)" style="fill: none; stroke: #aa6d39; stroke-opacity: 0.6; stroke-linecap: square"/>
   </g>
   <g id="patch_6">
    <path d="M 362.48375 138.42275
L 362.48375 59.88096
" style="fill: none; stroke: #1f1e1b; stroke-width: 0.8; stroke-linejoin: miter; stroke-linecap: square"/>
   </g>
   <g id="patch_7">
    <path d="M 362.48375 138.42275
L 441.02554 138.42275
" style="fill: none; stroke: #1f1e1b; stroke-width: 0.8; stroke-linejoin: miter; stroke-linecap: square"/>
   </g>
   <g id="PathCollection_7">
    <g clip-path="url(#p3932736abc)">
     <use xlink:href="#m190eb2f143" x="397.747411" y="95.350198" style="fill: #345a51; stroke: #000000; stroke-width: 0.4"/>
     <use xlink:href="#m190eb2f143" x="405.761879" y="95.773624" style="fill: #345a51; stroke: #000000; stroke-width: 0.4"/>
     <use xlink:href="#m190eb2f143" x="413.776347" y="94.747689" style="fill: #345a51; stroke: #000000; stroke-width: 0.4"/>
     <use xlink:href="#m190eb2f143" x="421.790816" y="92.503437" style="fill: #345a51; stroke: #000000; stroke-width: 0.4"/>
     <use xlink:href="#m190eb2f143" x="429.805284" y="69.690988" style="fill: #345a51; stroke: #000000; stroke-width: 0.4"/>
     <use xlink:href="#m190eb2f143" x="437.819752" y="64.539262" style="fill: #345a51; stroke: #000000; stroke-width: 0.4"/>
     <use xlink:href="#m190eb2f143" x="381.718474" y="96.404217" style="fill: #345a51; stroke: #000000; stroke-width: 0.4"/>
     <use xlink:href="#m190eb2f143" x="373.704006" y="96.538391" style="fill: #345a51; stroke: #000000; stroke-width: 0.4"/>
     <use xlink:href="#m190eb2f143" x="365.689537" y="96.368188" style="fill: #345a51; stroke: #000000; stroke-width: 0.4"/>
    </g>
   </g>
   <g id="PathCollection_8">
    <g clip-path="url(#p3932736abc)">
     <use xlink:href="#m3dd2a6cb7a" x="397.747411" y="117.091123" style="fill: #7e8a45; stroke: #000000; stroke-width: 0.4"/>
     <use xlink:href="#m3dd2a6cb7a" x="405.761879" y="112.305848" style="fill: #7e8a45; stroke: #000000; stroke-width: 0.4"/>
     <use xlink:href="#m3dd2a6cb7a" x="413.776347" y="113.275148" style="fill: #7e8a45; stroke: #000000; stroke-width: 0.4"/>
     <use xlink:href="#m3dd2a6cb7a" x="421.790816" y="105.268079" style="fill: #7e8a45; stroke: #000000; stroke-width: 0.4"/>
     <use xlink:href="#m3dd2a6cb7a" x="429.805284" y="76.198179" style="fill: #7e8a45; stroke: #000000; stroke-width: 0.4"/>
     <use xlink:href="#m3dd2a6cb7a" x="437.819752" y="63.451041" style="fill: #7e8a45; stroke: #000000; stroke-width: 0.4"/>
     <use xlink:href="#m3dd2a6cb7a" x="381.718474" y="117.83112" style="fill: #7e8a45; stroke: #000000; stroke-width: 0.4"/>
     <use xlink:href="#m3dd2a6cb7a" x="373.704006" y="118.040412" style="fill: #7e8a45; stroke: #000000; stroke-width: 0.4"/>
     <use xlink:href="#m3dd2a6cb7a" x="365.689537" y="117.79968" style="fill: #7e8a45; stroke: #000000; stroke-width: 0.4"/>
    </g>
   </g>
   <g id="PathCollection_9">
    <g clip-path="url(#p3932736abc)">
     <use xlink:href="#m1eddd87c9e" x="397.747411" y="131.860623" style="fill: #aa6d39; stroke: #000000; stroke-width: 0.4"/>
     <use xlink:href="#m1eddd87c9e" x="405.761879" y="131.789224" style="fill: #aa6d39; stroke: #000000; stroke-width: 0.4"/>
     <use xlink:href="#m1eddd87c9e" x="413.776347" y="128.376897" style="fill: #aa6d39; stroke: #000000; stroke-width: 0.4"/>
     <use xlink:href="#m1eddd87c9e" x="421.790816" y="117.867659" style="fill: #aa6d39; stroke: #000000; stroke-width: 0.4"/>
     <use xlink:href="#m1eddd87c9e" x="429.805284" y="75.8087" style="fill: #aa6d39; stroke: #000000; stroke-width: 0.4"/>
     <use xlink:href="#m1eddd87c9e" x="437.819752" y="66.505479" style="fill: #aa6d39; stroke: #000000; stroke-width: 0.4"/>
     <use xlink:href="#m1eddd87c9e" x="381.718474" y="129.679253" style="fill: #aa6d39; stroke: #000000; stroke-width: 0.4"/>
     <use xlink:href="#m1eddd87c9e" x="373.704006" y="129.851984" style="fill: #aa6d39; stroke: #000000; stroke-width: 0.4"/>
     <use xlink:href="#m1eddd87c9e" x="365.689537" y="129.333982" style="fill: #aa6d39; stroke: #000000; stroke-width: 0.4"/>
    </g>
   </g>
   <g id="PathCollection_10">
    <g clip-path="url(#p3932736abc)">
     <use xlink:href="#m02ea6a67bc" x="389.732942" y="95.736915" style="fill: #345a51; stroke: #000000; stroke-width: 0.6"/>
    </g>
   </g>
   <g id="PathCollection_11">
    <g clip-path="url(#p3932736abc)">
     <use xlink:href="#m85703ddaad" x="389.732942" y="116.575118" style="fill: #7e8a45; stroke: #000000; stroke-width: 0.6"/>
    </g>
   </g>
   <g id="PathCollection_12">
    <g clip-path="url(#p3932736abc)">
     <use xlink:href="#ma70c3705e5" x="389.732942" y="134.852668" style="fill: #aa6d39; stroke: #000000; stroke-width: 0.6"/>
    </g>
   </g>
  </g>
  <g id="text_15">
   <text style="font-size: 10.085px; font-family: 'Lato', sans-serif; text-anchor: middle; fill: #1f1e1b" x="216.014645" y="18.23175" transform="rotate(-0 216.014645 18.23175)">Transfer validation — Loss vs. β₂ and ε</text>
  </g>
  <g id="legend_1">
   <g id="text_16">
    <text style="font-size: 8.404px; font-family: 'Lato', sans-serif; text-anchor: start; fill: #1f1e1b" x="161.289957" y="216.55497" transform="rotate(-0 161.289957 216.55497)">Model parameters</text>
   </g>
   <g id="line2d_17">
    <defs>
     <path id="m6a5a48a254" d="M -4 4
L 4 4
L 4 -4
L -4 -4
z
" style="stroke: #000000; stroke-width: 0.6; stroke-linejoin: miter"/>
    </defs>
    <g>
     <use xlink:href="#m6a5a48a254" x="151.421832" y="230.355907" style="fill: #345a51; stroke: #000000; stroke-width: 0.6; stroke-linejoin: miter"/>
    </g>
   </g>
   <g id="text_17">
    <text style="font-size: 8.404px; font-family: 'Lato', sans-serif; text-anchor: start; fill: #1f1e1b" x="160.421832" y="234.555907" transform="rotate(-0 160.421832 234.555907)">255M</text>
   </g>
   <g id="line2d_18">
    <defs>
     <path id="m737ddcb7ff" d="M -4 4
L 4 4
L 4 -4
L -4 -4
z
" style="stroke: #000000; stroke-width: 0.6; stroke-linejoin: miter"/>
    </defs>
    <g>
     <use xlink:href="#m737ddcb7ff" x="206.280582" y="230.355907" style="fill: #7e8a45; stroke: #000000; stroke-width: 0.6; stroke-linejoin: miter"/>
    </g>
   </g>
   <g id="text_18">
    <text style="font-size: 8.404px; font-family: 'Lato', sans-serif; text-anchor: start; fill: #1f1e1b" x="215.280582" y="234.555907" transform="rotate(-0 215.280582 234.555907)">476M</text>
   </g>
   <g id="line2d_19">
    <defs>
     <path id="m1d9818003c" d="M -4 4
L 4 4
L 4 -4
L -4 -4
z
" style="stroke: #000000; stroke-width: 0.6; stroke-linejoin: miter"/>
    </defs>
    <g>
     <use xlink:href="#m1d9818003c" x="261.139332" y="230.355907" style="fill: #aa6d39; stroke: #000000; stroke-width: 0.6; stroke-linejoin: miter"/>
    </g>
   </g>
   <g id="text_19">
    <text style="font-size: 8.404px; font-family: 'Lato', sans-serif; text-anchor: start; fill: #1f1e1b" x="270.139332" y="234.555907" transform="rotate(-0 270.139332 234.555907)">1B</text>
   </g>
  </g>
  <g id="legend_2">
   <g id="text_20">
    <text style="font-size: 8.404px; font-family: 'Lato', sans-serif; text-anchor: start; fill: #1f1e1b" x="189.198395" y="265.99881" transform="rotate(-0 189.198395 265.99881)">Run type</text>
   </g>
   <g id="line2d_20">
    <defs>
     <path id="mbd841f5d73" d="M 0 4
C 1.060812 4 2.078319 3.578535 2.828427 2.828427
C 3.578535 2.078319 4 1.060812 4 0
C 4 -1.060812 3.578535 -2.078319 2.828427 -2.828427
C 2.078319 -3.578535 1.060812 -4 0 -4
C -1.060812 -4 -2.078319 -3.578535 -2.828427 -2.828427
C -3.578535 -2.078319 -4 -1.060812 -4 0
C -4 1.060812 -3.578535 2.078319 -2.828427 2.828427
C -2.078319 3.578535 -1.060812 4 0 4
z
" style="stroke: #000000; stroke-width: 0.6"/>
    </defs>
    <g>
     <use xlink:href="#mbd841f5d73" x="124.714332" y="279.799747" style="fill: #d3d3d3; stroke: #000000; stroke-width: 0.6"/>
    </g>
   </g>
   <g id="text_21">
    <text style="font-size: 8.404px; font-family: 'Lato', sans-serif; text-anchor: start; fill: #1f1e1b" x="133.714332" y="283.999747" transform="rotate(-0 133.714332 283.999747)">Sweep</text>
   </g>
   <g id="line2d_21">
    <defs>
     <path id="m63718ada99" d="M -4 4
L 4 4
L 4 -4
L -4 -4
z
" style="stroke: #000000; stroke-width: 0.6; stroke-linejoin: miter"/>
    </defs>
    <g>
     <use xlink:href="#m63718ada99" x="186.131832" y="279.799747" style="fill: #d3d3d3; stroke: #000000; stroke-width: 0.6; stroke-linejoin: miter"/>
    </g>
   </g>
   <g id="text_22">
    <text style="font-size: 8.404px; font-family: 'Lato', sans-serif; text-anchor: start; fill: #1f1e1b" x="195.131832" y="283.999747" transform="rotate(-0 195.131832 283.999747)">Optimal (predicted)</text>
   </g>
  </g>
 </g>
 <defs>
  <clipPath id="p3299223fdd">
   <rect x="49.28375" y="59.88096" width="78.54179" height="78.54179"/>
  </clipPath>
  <clipPath id="p3932736abc">
   <rect x="362.48375" y="59.88096" width="78.54179" height="78.54179"/>
  </clipPath>
 </defs>
</svg>
